# xmcd
#
# Track frame offsets:
#	150
#	21730
#	39957
#	55810
#	70655
#	87275
#	109592
#	132347
#	151212
#	171050
#	190992
#	210697
#	228975
#	251267
#	267440
#	285355
#	305042
#	324197
#	342215
#
# Disc length: 4734 seconds
#
# Revision: 10
# Processed by: cddbd v1.5.2PL0 Copyright (c) Steve Scherf et al.
# Submitted via: audiograbber 1.83.01
#
DISCID=05127c13
DTITLE=Bee Gees - Their Greatest Hit [CD2]
DYEAR=2001
DGENRE=Pop
TTITLE0=Stayin' Alive
TTITLE1=How Deep Is Your Love
TTITLE2=Night Fever
TTITLE3=More Than A Woman
TTITLE4=Emotion
TTITLE5=Too Much Heaven
TTITLE6=Tragedy
TTITLE7=Love You Inside Out
TTITLE8=Guilty
TTITLE9=Heartbreaker
TTITLE10=Islands In The Stream
TTITLE11=You Win Again
TTITLE12=One
TTITLE13=Secret Love
TTITLE14=For Whom The Bell Tolls
TTITLE15=Alone
TTITLE16=Immortality
TTITLE17=This Is Where I Came In
TTITLE18=Spicks and Specks
EXTD=
EXTT0=
EXTT1=
EXTT2=
EXTT3=
EXTT4=
EXTT5=
EXTT6=
EXTT7=
EXTT8=
EXTT9=
EXTT10=
EXTT11=
EXTT12=
EXTT13=
EXTT14=
EXTT15=
EXTT16=
EXTT17=
EXTT18=
PLAYORDER=
